<svg xmlns="http://www.w3.org/2000/svg" width="512" height="512" viewBox="0 0 512 512">
  <defs>
    <linearGradient id="g" x1="0" y1="0" x2="1" y2="1">
      <stop offset="0" stop-color="#0b5ed7"/>
      <stop offset="1" stop-color="#f59e0b"/>
    </linearGradient>
    <filter id="s" x="-20%" y="-20%" width="140%" height="140%">
      <feDropShadow dx="0" dy="8" stdDeviation="10" flood-color="#0b1220" flood-opacity="0.25"/>
    </filter>
  </defs>
  <rect x="56" y="56" width="400" height="400" rx="110" fill="url(#g)" filter="url(#s)"/>
  <path d="M170 168h172c18 0 32 14 32 32v16c0 18-14 32-32 32h-96v18h64c18 0 32 14 32 32v16c0 18-14 32-32 32h-64v14c0 17-13 30-30 30h-16c-17 0-30-13-30-30v-14h-26c-18 0-32-14-32-32v-16c0-18 14-32 32-32h26v-18h-44c-18 0-32-14-32-32v-16c0-18 14-32 32-32z" fill="#fff" opacity="0.95"/>
</svg>
