<svg xmlns="http://www.w3.org/2000/svg" width="64" height="64" viewBox="0 0 64 64">
  <defs>
    <linearGradient id="g" x1="0" y1="0" x2="1" y2="1">
      <stop offset="0" stop-color="#0b5ed7"/>
      <stop offset="1" stop-color="#f59e0b"/>
    </linearGradient>
  </defs>
  <rect x="6" y="6" width="52" height="52" rx="16" fill="url(#g)"/>
  <path d="M20 22h22c2.2 0 4 1.8 4 4v2c0 2.2-1.8 4-4 4H30v3h8c2.2 0 4 1.8 4 4v2c0 2.2-1.8 4-4 4h-8v3c0 2.2-1.8 4-4 4h-2c-2.2 0-4-1.8-4-4v-3h-2c-2.2 0-4-1.8-4-4v-2c0-2.2 1.8-4 4-4h2v-3h-6c-2.2 0-4-1.8-4-4v-2c0-2.2 1.8-4 4-4z" fill="#fff" opacity="0.95"/>
</svg>
